<svg xmlns="http://www.w3.org/2000/svg" xmlns:xlink="http://www.w3.org/1999/xlink" width="160" zoomAndPan="magnify" viewBox="0 0 120 119.999999" height="160" preserveAspectRatio="xMidYMid meet" version="1.0"><defs><g/><clipPath id="96fdec66b4"><path d="M 17 42.957031 L 34 42.957031 L 34 76.707031 L 17 76.707031 Z M 17 42.957031 " clip-rule="nonzero"/></clipPath><clipPath id="e55a963925"><path d="M 32 52 L 42.144531 52 L 42.144531 60 L 32 60 Z M 32 52 " clip-rule="nonzero"/></clipPath><clipPath id="5d5345562e"><path d="M 25 59 L 37 59 L 37 76.707031 L 25 76.707031 Z M 25 59 " clip-rule="nonzero"/></clipPath><clipPath id="100e607a78"><path d="M 59 4 L 72.800781 4 L 72.800781 18 L 59 18 Z M 59 4 " clip-rule="nonzero"/></clipPath><clipPath id="c7aa54f406"><rect x="0" width="73" y="0" height="24"/></clipPath><clipPath id="7da3c740a7"><path d="M 0.238281 3 L 53.519531 3 L 53.519531 4.640625 L 0.238281 4.640625 Z M 0.238281 3 " clip-rule="nonzero"/></clipPath><clipPath id="7aa81f3bdd"><path d="M 0.238281 1 L 3 1 L 3 4 L 0.238281 4 Z M 0.238281 1 " clip-rule="nonzero"/></clipPath><clipPath id="2507c1dd7d"><rect x="0" width="54" y="0" height="5"/></clipPath></defs><g clip-path="url(#96fdec66b4)"><path fill="#f89c02" d="M 28.417969 61.8125 C 22.980469 68.167969 23.082031 75.066406 29.507812 76.105469 C 29.683594 76.132812 29.867188 76.15625 30.054688 76.175781 C 23.320312 76.175781 20.773438 72.238281 20.9375 67.613281 C 21.101562 62.988281 24.039062 58.140625 28.082031 54.945312 C 28.082031 54.945312 19.289062 59.117188 19.582031 69.667969 C 12.257812 56.558594 28.484375 51.644531 30.570312 42.957031 C 33.949219 47.828125 34.09375 53.015625 30.933594 58.335938 C 30.25 59.488281 29.410156 60.648438 28.417969 61.8125 Z M 28.417969 61.8125 " fill-opacity="1" fill-rule="nonzero"/></g><path fill="#f89c02" d="M 17.863281 68.613281 C 12.835938 65.03125 19.253906 54.863281 5.761719 52.339844 C 9.402344 56.359375 2.425781 71.945312 18.71875 70.632812 C 18.71875 70.632812 10.425781 69.148438 10.464844 61.460938 C 10.464844 61.460938 11.828125 67.890625 17.863281 68.613281 Z M 17.863281 68.613281 " fill-opacity="1" fill-rule="nonzero"/><path fill="#f89c02" d="M 14.335938 73.128906 C 16.113281 73.457031 19.402344 73.484375 21.15625 73.472656 C 17.503906 70.730469 12.265625 72.71875 7.445312 72.535156 C 12.621094 77.035156 18.488281 75.871094 21.277344 74.316406 C 18.183594 74.339844 14.335938 73.128906 14.335938 73.128906 Z M 14.335938 73.128906 " fill-opacity="1" fill-rule="nonzero"/><g clip-path="url(#e55a963925)"><path fill="#f89c02" d="M 37.84375 55.332031 C 36.558594 56.101562 34.589844 58.03125 33.5625 59.082031 C 37.683594 59.308594 39.363281 55.1875 42.34375 52.484375 C 36.0625 51.625 33.425781 55.402344 32.886719 58.417969 C 34.699219 56.558594 37.84375 55.332031 37.84375 55.332031 Z M 37.84375 55.332031 " fill-opacity="1" fill-rule="nonzero"/></g><path fill="#f89c02" d="M 17.269531 59.089844 C 18.65625 51.003906 26.386719 50.523438 22.792969 43.136719 C 20.425781 47.105469 12.007812 49.734375 15.734375 57.324219 C 15.734375 57.324219 16.210938 51.519531 20.320312 49.105469 C 20.320312 49.105469 15.75 53.457031 17.269531 59.089844 Z M 17.269531 59.089844 " fill-opacity="1" fill-rule="nonzero"/><g clip-path="url(#5d5345562e)"><path fill="#f89c02" d="M 36.332031 67.210938 L 34.207031 65.179688 C 34.207031 65.179688 34.574219 61.652344 32.144531 59.269531 C 31.5 60.175781 30.773438 61.101562 29.902344 61.984375 C 24.679688 67.289062 23.488281 74.027344 29.507812 76.101562 C 29.503906 76.101562 29.5 76.101562 29.496094 76.097656 C 29.5 76.101562 29.503906 76.101562 29.507812 76.105469 C 29.5625 76.125 29.6875 76.140625 29.800781 76.152344 C 29.882812 76.160156 29.960938 76.167969 30.042969 76.175781 C 30.050781 76.175781 30.054688 76.175781 30.054688 76.175781 C 33.0625 76.492188 35.082031 75.59375 35.6875 75.007812 C 36.292969 74.425781 35.777344 73.550781 35.105469 73.214844 C 35.734375 72.675781 35.980469 71.890625 34.882812 71.53125 C 36.027344 71.011719 35.554688 70.476562 35.332031 70.207031 C 35.105469 69.9375 34.859375 69.128906 34.859375 69.128906 L 36.039062 68.613281 C 36.59375 68.371094 36.742188 67.65625 36.332031 67.210938 Z M 36.332031 67.210938 " fill-opacity="1" fill-rule="nonzero"/></g><g transform="matrix(1, 0, 0, 1, 40, 51)"><g clip-path="url(#c7aa54f406)"><g fill="#f89c02" fill-opacity="1"><g transform="translate(0.905593, 17.734331)"><g><path d="M 11.390625 -3.890625 L 11.390625 -2.984375 C 11.390625 -2.515625 11.332031 -2.140625 11.21875 -1.859375 C 11.101562 -1.585938 10.925781 -1.347656 10.6875 -1.140625 C 11.15625 -1.066406 11.390625 -0.679688 11.390625 0.015625 L 11.390625 0.375 L 10.9375 0.375 C 10.851562 0.1875 10.722656 0.078125 10.546875 0.046875 C 10.367188 0.015625 10.140625 0 9.859375 0 L 5.359375 0 C 4.492188 0 3.898438 -0.234375 3.578125 -0.703125 C 3.253906 -0.234375 2.664062 0 1.8125 0 L 0.390625 0 L 0.390625 -0.453125 C 0.921875 -0.578125 1.316406 -0.738281 1.578125 -0.9375 C 1.847656 -1.144531 2.023438 -1.398438 2.109375 -1.703125 C 2.203125 -2.015625 2.25 -2.378906 2.25 -2.796875 L 2.25 -10.203125 C 2.25 -10.691406 2.132812 -11.097656 1.90625 -11.421875 C 1.675781 -11.742188 1.171875 -12 0.390625 -12.1875 L 0.390625 -12.640625 L 1.8125 -12.640625 C 2.664062 -12.640625 3.253906 -12.40625 3.578125 -11.9375 C 3.898438 -12.40625 4.492188 -12.640625 5.359375 -12.640625 L 6.75 -12.640625 L 6.75 -12.1875 C 5.988281 -12 5.484375 -11.75 5.234375 -11.4375 C 4.984375 -11.125 4.859375 -10.710938 4.859375 -10.203125 L 4.859375 -3.1875 C 4.859375 -2.363281 5.023438 -1.753906 5.359375 -1.359375 C 5.703125 -0.972656 6.34375 -0.789062 7.28125 -0.8125 C 8.195312 -0.8125 8.96875 -1.066406 9.59375 -1.578125 C 10.226562 -2.097656 10.675781 -2.867188 10.9375 -3.890625 Z M 11.390625 -3.890625 "/></g></g></g><g fill="#f89c02" fill-opacity="1"><g transform="translate(12.756006, 17.734331)"><g><path d="M 14.296875 -12.640625 L 14.890625 -12.640625 L 14.890625 -12.234375 C 14.148438 -12.054688 13.644531 -11.769531 13.375 -11.375 C 13.101562 -10.988281 12.96875 -10.460938 12.96875 -9.796875 L 12.96875 -4.21875 C 12.96875 -2.800781 12.503906 -1.707031 11.578125 -0.9375 C 10.648438 -0.164062 9.320312 0.21875 7.59375 0.21875 C 6.320312 0.21875 5.285156 0.0351562 4.484375 -0.328125 C 3.679688 -0.703125 3.085938 -1.222656 2.703125 -1.890625 C 2.316406 -2.554688 2.125 -3.316406 2.125 -4.171875 L 2.125 -9.671875 C 2.125 -10.335938 1.988281 -10.882812 1.71875 -11.3125 C 1.457031 -11.75 0.96875 -12.054688 0.25 -12.234375 L 0.25 -12.640625 L 1.6875 -12.640625 C 2.125 -12.640625 2.488281 -12.578125 2.78125 -12.453125 C 3.070312 -12.335938 3.296875 -12.164062 3.453125 -11.9375 C 3.753906 -12.40625 4.347656 -12.640625 5.234375 -12.640625 L 6.59375 -12.640625 L 6.59375 -12.234375 C 6.0625 -12.097656 5.660156 -11.898438 5.390625 -11.640625 C 5.117188 -11.390625 4.9375 -11.09375 4.84375 -10.75 C 4.75 -10.414062 4.703125 -10.054688 4.703125 -9.671875 L 4.703125 -4.828125 C 4.703125 -2.335938 5.867188 -1.09375 8.203125 -1.09375 C 9.441406 -1.09375 10.390625 -1.394531 11.046875 -2 C 11.710938 -2.613281 12.046875 -3.484375 12.046875 -4.609375 L 12.046875 -9.671875 C 12.046875 -10.140625 11.992188 -10.539062 11.890625 -10.875 C 11.796875 -11.21875 11.597656 -11.5 11.296875 -11.71875 C 10.992188 -11.9375 10.546875 -12.109375 9.953125 -12.234375 L 9.953125 -12.640625 L 10.75 -12.640625 C 11.601562 -12.640625 12.191406 -12.40625 12.515625 -11.9375 C 12.671875 -12.164062 12.90625 -12.335938 13.21875 -12.453125 C 13.53125 -12.578125 13.890625 -12.640625 14.296875 -12.640625 Z M 14.296875 -12.640625 "/></g></g></g><g fill="#f89c02" fill-opacity="1"><g transform="translate(27.882288, 17.734331)"><g><path d="M 7.875 -6.640625 L 7.875 -6.59375 C 9.25 -6.5 10.3125 -6.175781 11.0625 -5.625 C 11.8125 -5.070312 12.1875 -4.332031 12.1875 -3.40625 C 12.1875 -2.382812 11.738281 -1.5625 10.84375 -0.9375 C 9.957031 -0.3125 8.660156 0 6.953125 0 L 6.625 0 C 5.769531 0 5.109375 -0.0546875 4.640625 -0.171875 C 4.179688 -0.296875 3.832031 -0.472656 3.59375 -0.703125 C 3.269531 -0.234375 2.679688 0 1.828125 0 L 0.4375 0 L 0.4375 -0.453125 C 1.175781 -0.585938 1.660156 -0.835938 1.890625 -1.203125 C 2.128906 -1.566406 2.25 -2.070312 2.25 -2.71875 L 2.25 -9.9375 C 2.25 -10.570312 2.125 -11.0625 1.875 -11.40625 C 1.632812 -11.75 1.15625 -12.007812 0.4375 -12.1875 L 0.4375 -12.640625 L 1.828125 -12.640625 C 2.679688 -12.640625 3.269531 -12.40625 3.59375 -11.9375 C 3.832031 -12.164062 4.179688 -12.335938 4.640625 -12.453125 C 5.109375 -12.578125 5.769531 -12.640625 6.625 -12.640625 L 6.84375 -12.640625 C 7.375 -12.640625 7.921875 -12.601562 8.484375 -12.53125 C 9.054688 -12.457031 9.582031 -12.316406 10.0625 -12.109375 C 10.550781 -11.898438 10.941406 -11.597656 11.234375 -11.203125 C 11.535156 -10.816406 11.6875 -10.300781 11.6875 -9.65625 C 11.6875 -8.769531 11.347656 -8.082031 10.671875 -7.59375 C 10.003906 -7.101562 9.070312 -6.785156 7.875 -6.640625 Z M 4.875 -10.046875 L 4.875 -7 L 5.765625 -7 C 6.367188 -7 6.90625 -7.0625 7.375 -7.1875 C 7.851562 -7.320312 8.226562 -7.566406 8.5 -7.921875 C 8.78125 -8.273438 8.921875 -8.769531 8.921875 -9.40625 C 8.921875 -10.300781 8.6875 -10.9375 8.21875 -11.3125 C 7.757812 -11.6875 7.179688 -11.875 6.484375 -11.875 C 5.890625 -11.875 5.472656 -11.71875 5.234375 -11.40625 C 4.992188 -11.09375 4.875 -10.640625 4.875 -10.046875 Z M 6.890625 -0.8125 C 7.359375 -0.8125 7.773438 -0.878906 8.140625 -1.015625 C 8.503906 -1.160156 8.789062 -1.398438 9 -1.734375 C 9.21875 -2.078125 9.328125 -2.550781 9.328125 -3.15625 C 9.328125 -4.21875 9 -4.992188 8.34375 -5.484375 C 7.6875 -5.972656 6.816406 -6.21875 5.734375 -6.21875 L 4.875 -6.21875 L 4.875 -2.90625 C 4.875 -2.269531 5.003906 -1.757812 5.265625 -1.375 C 5.535156 -1 6.078125 -0.8125 6.890625 -0.8125 Z M 6.890625 -0.8125 "/></g></g></g><g fill="#f89c02" fill-opacity="1"><g transform="translate(40.914163, 17.734331)"><g><path d="M 6.84375 -12.640625 L 6.84375 -12.1875 C 6.289062 -12.082031 5.875 -11.929688 5.59375 -11.734375 C 5.3125 -11.535156 5.125 -11.304688 5.03125 -11.046875 C 4.9375 -10.796875 4.890625 -10.515625 4.890625 -10.203125 L 4.890625 -2.4375 C 4.890625 -1.9375 5.015625 -1.519531 5.265625 -1.1875 C 5.523438 -0.863281 6.046875 -0.617188 6.828125 -0.453125 L 6.828125 0 L 5.359375 0 C 4.953125 0 4.59375 -0.0546875 4.28125 -0.171875 C 3.96875 -0.296875 3.734375 -0.472656 3.578125 -0.703125 C 3.253906 -0.234375 2.664062 0 1.8125 0 L 0.390625 0 L 0.390625 -0.453125 C 1.171875 -0.617188 1.6875 -0.867188 1.9375 -1.203125 C 2.1875 -1.546875 2.3125 -1.957031 2.3125 -2.4375 L 2.3125 -10.203125 C 2.3125 -10.753906 2.171875 -11.1875 1.890625 -11.5 C 1.617188 -11.8125 1.117188 -12.039062 0.390625 -12.1875 L 0.390625 -12.640625 L 1.8125 -12.640625 C 2.664062 -12.640625 3.253906 -12.40625 3.578125 -11.9375 C 3.734375 -12.164062 3.96875 -12.335938 4.28125 -12.453125 C 4.59375 -12.578125 4.953125 -12.640625 5.359375 -12.640625 Z M 6.84375 -12.640625 "/></g></g></g><g fill="#f89c02" fill-opacity="1"><g transform="translate(48.146138, 17.734331)"><g><path d="M 1.359375 0.375 L 0.90625 0.375 L 0.90625 0.015625 C 0.90625 -0.347656 0.972656 -0.625 1.109375 -0.8125 C 1.242188 -1.007812 1.410156 -1.117188 1.609375 -1.140625 C 1.367188 -1.347656 1.191406 -1.597656 1.078125 -1.890625 C 0.960938 -2.179688 0.90625 -2.570312 0.90625 -3.0625 L 0.90625 -3.890625 L 1.359375 -3.890625 C 2.066406 -2.753906 2.78125 -1.925781 3.5 -1.40625 C 4.21875 -0.894531 4.960938 -0.640625 5.734375 -0.640625 C 6.347656 -0.640625 6.796875 -0.800781 7.078125 -1.125 C 7.367188 -1.445312 7.515625 -1.835938 7.515625 -2.296875 C 7.515625 -3.046875 7.222656 -3.695312 6.640625 -4.25 C 6.304688 -4.570312 5.875 -4.890625 5.34375 -5.203125 C 4.820312 -5.515625 4.289062 -5.835938 3.75 -6.171875 C 3.207031 -6.503906 2.722656 -6.863281 2.296875 -7.25 C 1.816406 -7.695312 1.492188 -8.097656 1.328125 -8.453125 C 1.160156 -8.816406 1.078125 -9.210938 1.078125 -9.640625 C 1.078125 -10.273438 1.257812 -10.835938 1.625 -11.328125 C 1.988281 -11.816406 2.503906 -12.195312 3.171875 -12.46875 C 3.847656 -12.75 4.65625 -12.890625 5.59375 -12.890625 C 6.195312 -12.890625 6.738281 -12.84375 7.21875 -12.75 C 7.707031 -12.65625 8.09375 -12.59375 8.375 -12.5625 C 8.613281 -12.550781 8.796875 -12.578125 8.921875 -12.640625 C 9.046875 -12.703125 9.148438 -12.835938 9.234375 -13.046875 L 9.6875 -13.046875 L 9.6875 -12.65625 C 9.6875 -12.34375 9.628906 -12.082031 9.515625 -11.875 C 9.398438 -11.664062 9.222656 -11.550781 8.984375 -11.53125 C 9.296875 -11.269531 9.488281 -10.984375 9.5625 -10.671875 C 9.644531 -10.359375 9.6875 -10.03125 9.6875 -9.6875 L 9.6875 -8.75 L 9.234375 -8.75 C 8.753906 -9.882812 8.144531 -10.71875 7.40625 -11.25 C 6.664062 -11.789062 5.941406 -12.0625 5.234375 -12.0625 C 4.617188 -12.0625 4.164062 -11.898438 3.875 -11.578125 C 3.59375 -11.265625 3.453125 -10.90625 3.453125 -10.5 C 3.453125 -10.175781 3.53125 -9.882812 3.6875 -9.625 C 3.851562 -9.363281 4.054688 -9.132812 4.296875 -8.9375 C 4.597656 -8.6875 5.003906 -8.414062 5.515625 -8.125 C 6.023438 -7.84375 6.5625 -7.535156 7.125 -7.203125 C 7.6875 -6.867188 8.175781 -6.507812 8.59375 -6.125 C 9.519531 -5.300781 9.984375 -4.390625 9.984375 -3.390625 C 9.984375 -2.953125 9.894531 -2.519531 9.71875 -2.09375 C 9.550781 -1.664062 9.273438 -1.273438 8.890625 -0.921875 C 8.503906 -0.566406 7.992188 -0.28125 7.359375 -0.0625 C 6.734375 0.144531 5.972656 0.25 5.078125 0.25 C 4.492188 0.25 3.957031 0.203125 3.46875 0.109375 C 2.976562 0.0234375 2.582031 -0.0351562 2.28125 -0.078125 C 2.007812 -0.0976562 1.8125 -0.0820312 1.6875 -0.03125 C 1.5625 0.0195312 1.453125 0.15625 1.359375 0.375 Z M 1.359375 0.375 "/></g></g></g><g clip-path="url(#100e607a78)"><g fill="#f89c02" fill-opacity="1"><g transform="translate(59.083601, 17.734331)"><g><path d="M 4.984375 0 L 3.1875 0 L 3.1875 -0.453125 C 3.851562 -0.578125 4.34375 -0.734375 4.65625 -0.921875 C 4.976562 -1.117188 5.1875 -1.34375 5.28125 -1.59375 C 5.382812 -1.84375 5.4375 -2.125 5.4375 -2.4375 L 5.4375 -9.9375 C 5.4375 -10.28125 5.394531 -10.597656 5.3125 -10.890625 C 5.238281 -11.179688 5.085938 -11.414062 4.859375 -11.59375 C 4.640625 -11.78125 4.300781 -11.875 3.84375 -11.875 C 3.3125 -11.875 2.757812 -11.609375 2.1875 -11.078125 C 1.625 -10.554688 1.191406 -9.78125 0.890625 -8.75 L 0.453125 -8.75 L 0.453125 -9.6875 C 0.453125 -10.101562 0.5 -10.457031 0.59375 -10.75 C 0.695312 -11.039062 0.878906 -11.300781 1.140625 -11.53125 C 0.679688 -11.59375 0.453125 -11.96875 0.453125 -12.65625 L 0.453125 -13.046875 L 0.890625 -13.046875 C 0.984375 -12.847656 1.113281 -12.726562 1.28125 -12.6875 C 1.457031 -12.65625 1.6875 -12.640625 1.96875 -12.640625 L 11.53125 -12.640625 C 11.820312 -12.640625 12.050781 -12.65625 12.21875 -12.6875 C 12.394531 -12.726562 12.523438 -12.847656 12.609375 -13.046875 L 13.046875 -13.046875 L 13.046875 -12.65625 C 13.046875 -11.96875 12.816406 -11.59375 12.359375 -11.53125 C 12.617188 -11.300781 12.796875 -11.039062 12.890625 -10.75 C 12.992188 -10.457031 13.046875 -10.101562 13.046875 -9.6875 L 13.046875 -8.75 L 12.609375 -8.75 C 12.304688 -9.78125 11.867188 -10.554688 11.296875 -11.078125 C 10.734375 -11.609375 10.1875 -11.875 9.65625 -11.875 C 9.207031 -11.875 8.867188 -11.78125 8.640625 -11.59375 C 8.421875 -11.414062 8.269531 -11.179688 8.1875 -10.890625 C 8.113281 -10.597656 8.078125 -10.28125 8.078125 -9.9375 L 8.078125 -2.4375 C 8.078125 -2.125 8.125 -1.84375 8.21875 -1.59375 C 8.3125 -1.34375 8.515625 -1.117188 8.828125 -0.921875 C 9.148438 -0.734375 9.648438 -0.578125 10.328125 -0.453125 L 10.328125 0 L 8.515625 0 C 8.117188 0 7.765625 -0.0546875 7.453125 -0.171875 C 7.140625 -0.296875 6.90625 -0.472656 6.75 -0.703125 C 6.425781 -0.234375 5.835938 0 4.984375 0 Z M 4.984375 0 "/></g></g></g></g></g></g><g transform="matrix(1, 0, 0, 1, 48, 70)"><g clip-path="url(#2507c1dd7d)"><g clip-path="url(#7da3c740a7)"><path fill="#000000" d="M 0.363281 3.929688 L 53.148438 3.929688 L 53.148438 4.164062 L 0.363281 4.164062 Z M 0.363281 3.929688 " fill-opacity="1" fill-rule="nonzero"/></g><g clip-path="url(#7aa81f3bdd)"><g fill="#000000" fill-opacity="1"><g transform="translate(0.364418, 3.70035)"><g><path d="M 0.28125 0 L 0.28125 -2.53125 L 1.28125 -2.53125 C 1.4375 -2.53125 1.566406 -2.492188 1.671875 -2.421875 C 1.773438 -2.359375 1.851562 -2.269531 1.90625 -2.15625 C 1.96875 -2.039062 2 -1.910156 2 -1.765625 C 2 -1.671875 1.976562 -1.578125 1.9375 -1.484375 C 1.90625 -1.390625 1.847656 -1.316406 1.765625 -1.265625 C 1.847656 -1.203125 1.910156 -1.125 1.953125 -1.03125 C 2.003906 -0.945312 2.03125 -0.859375 2.03125 -0.765625 C 2.03125 -0.617188 1.992188 -0.488281 1.921875 -0.375 C 1.859375 -0.257812 1.769531 -0.164062 1.65625 -0.09375 C 1.539062 -0.03125 1.414062 0 1.28125 0 Z M 0.796875 -2.015625 L 0.796875 -1.515625 L 1.234375 -1.515625 C 1.304688 -1.515625 1.363281 -1.539062 1.40625 -1.59375 C 1.445312 -1.644531 1.46875 -1.703125 1.46875 -1.765625 C 1.46875 -1.835938 1.445312 -1.894531 1.40625 -1.9375 C 1.363281 -1.988281 1.304688 -2.015625 1.234375 -2.015625 Z M 0.796875 -1.015625 L 0.796875 -0.5 L 1.234375 -0.5 C 1.304688 -0.5 1.367188 -0.523438 1.421875 -0.578125 C 1.472656 -0.628906 1.5 -0.691406 1.5 -0.765625 C 1.5 -0.828125 1.472656 -0.882812 1.421875 -0.9375 C 1.367188 -0.988281 1.304688 -1.015625 1.234375 -1.015625 Z M 0.796875 -1.015625 "/></g></g></g></g><g fill="#000000" fill-opacity="1"><g transform="translate(3.480215, 3.70035)"><g><path d="M 1.59375 0 L 0.28125 0 L 0.28125 -2.53125 L 1.546875 -2.53125 L 1.546875 -2.015625 L 0.78125 -2.015625 L 0.78125 -1.515625 L 1.453125 -1.515625 L 1.453125 -1.015625 L 0.78125 -1.015625 L 0.78125 -0.5 L 1.59375 -0.5 Z M 1.59375 0 "/></g></g></g><g fill="#000000" fill-opacity="1"><g transform="translate(6.183721, 3.70035)"><g><path d="M 0.0625 0 L 1.125 -2.609375 L 1.171875 -2.609375 L 2.234375 0 L 1.671875 0 L 1.5625 -0.265625 L 0.734375 -0.265625 L 0.625 0 Z M 0.90625 -0.75 L 1.375 -0.75 L 1.140625 -1.40625 Z M 0.90625 -0.75 "/></g></g></g><g fill="#000000" fill-opacity="1"><g transform="translate(9.412279, 3.70035)"><g><path d="M 2.09375 -0.875 C 2.09375 -0.707031 2.054688 -0.5625 1.984375 -0.4375 C 1.921875 -0.3125 1.835938 -0.210938 1.734375 -0.140625 C 1.628906 -0.0664062 1.507812 -0.0195312 1.375 0 C 1.25 0.0195312 1.117188 0.0195312 0.984375 0 C 0.859375 -0.0195312 0.738281 -0.0664062 0.625 -0.140625 C 0.519531 -0.210938 0.429688 -0.3125 0.359375 -0.4375 C 0.296875 -0.5625 0.265625 -0.707031 0.265625 -0.875 L 0.265625 -2.53125 L 0.765625 -2.53125 L 0.765625 -0.875 C 0.765625 -0.769531 0.789062 -0.6875 0.84375 -0.625 C 0.90625 -0.5625 0.976562 -0.519531 1.0625 -0.5 C 1.144531 -0.476562 1.222656 -0.476562 1.296875 -0.5 C 1.378906 -0.519531 1.445312 -0.5625 1.5 -0.625 C 1.5625 -0.6875 1.59375 -0.769531 1.59375 -0.875 L 1.59375 -2.53125 L 2.09375 -2.53125 Z M 2.09375 -0.875 "/></g></g></g><g fill="#000000" fill-opacity="1"><g transform="translate(12.704269, 3.70035)"><g><path d="M 1.203125 0 L 0.703125 0 L 0.703125 -2.015625 L 0.078125 -2.015625 L 0.078125 -2.515625 L 1.828125 -2.515625 L 1.828125 -2.015625 L 1.203125 -2.015625 Z M 1.203125 0 "/></g></g></g><g fill="#000000" fill-opacity="1"><g transform="translate(15.5593, 3.70035)"><g><path d="M 0.90625 0 L 0.90625 -1.140625 L 0.015625 -2.53125 L 0.640625 -2.53125 L 1.15625 -1.65625 L 1.671875 -2.53125 L 2.28125 -2.53125 L 1.40625 -1.140625 L 1.40625 0 Z M 0.90625 0 "/></g></g></g><g fill="#000000" fill-opacity="1"><g transform="translate(18.773766, 3.70035)"><g/></g></g><g fill="#000000" fill-opacity="1"><g transform="translate(20.702022, 3.70035)"><g><path d="M 1.078125 -2.5625 C 1.265625 -2.5625 1.410156 -2.515625 1.515625 -2.421875 C 1.628906 -2.328125 1.6875 -2.191406 1.6875 -2.015625 C 1.6875 -1.867188 1.632812 -1.742188 1.53125 -1.640625 C 1.4375 -1.535156 1.316406 -1.441406 1.171875 -1.359375 L 1.859375 -0.703125 C 1.921875 -0.773438 1.96875 -0.859375 2 -0.953125 C 2.039062 -1.046875 2.078125 -1.148438 2.109375 -1.265625 L 2.421875 -1.265625 C 2.378906 -1.109375 2.332031 -0.960938 2.28125 -0.828125 C 2.226562 -0.703125 2.15625 -0.59375 2.0625 -0.5 L 2.578125 0 L 2.15625 0 L 1.84375 -0.296875 C 1.738281 -0.191406 1.617188 -0.109375 1.484375 -0.046875 C 1.347656 0.00390625 1.179688 0.03125 0.984375 0.03125 C 0.734375 0.03125 0.535156 -0.0234375 0.390625 -0.140625 C 0.253906 -0.265625 0.1875 -0.4375 0.1875 -0.65625 C 0.1875 -0.832031 0.234375 -0.972656 0.328125 -1.078125 C 0.429688 -1.191406 0.566406 -1.296875 0.734375 -1.390625 C 0.660156 -1.484375 0.585938 -1.578125 0.515625 -1.671875 C 0.453125 -1.765625 0.421875 -1.878906 0.421875 -2.015625 C 0.421875 -2.179688 0.476562 -2.3125 0.59375 -2.40625 C 0.707031 -2.507812 0.867188 -2.5625 1.078125 -2.5625 Z M 1.0625 -2.3125 C 0.96875 -2.3125 0.890625 -2.285156 0.828125 -2.234375 C 0.765625 -2.179688 0.734375 -2.109375 0.734375 -2.015625 C 0.734375 -1.929688 0.753906 -1.851562 0.796875 -1.78125 C 0.835938 -1.707031 0.898438 -1.628906 0.984375 -1.546875 C 1.128906 -1.617188 1.226562 -1.691406 1.28125 -1.765625 C 1.34375 -1.835938 1.375 -1.921875 1.375 -2.015625 C 1.375 -2.097656 1.34375 -2.164062 1.28125 -2.21875 C 1.226562 -2.28125 1.15625 -2.3125 1.0625 -2.3125 Z M 0.921875 -1.203125 C 0.796875 -1.128906 0.695312 -1.050781 0.625 -0.96875 C 0.550781 -0.894531 0.515625 -0.796875 0.515625 -0.671875 C 0.515625 -0.535156 0.554688 -0.425781 0.640625 -0.34375 C 0.722656 -0.269531 0.84375 -0.234375 1 -0.234375 C 1.144531 -0.234375 1.269531 -0.257812 1.375 -0.3125 C 1.488281 -0.363281 1.582031 -0.421875 1.65625 -0.484375 Z M 0.921875 -1.203125 "/></g></g></g><g fill="#000000" fill-opacity="1"><g transform="translate(24.208968, 3.70035)"><g/></g></g><g fill="#000000" fill-opacity="1"><g transform="translate(26.137224, 3.70035)"><g><path d="M 0.171875 -0.15625 L 0.234375 -0.6875 C 0.328125 -0.625 0.421875 -0.578125 0.515625 -0.546875 C 0.609375 -0.515625 0.691406 -0.492188 0.765625 -0.484375 C 0.847656 -0.484375 0.910156 -0.484375 0.953125 -0.484375 C 1.023438 -0.492188 1.085938 -0.519531 1.140625 -0.5625 C 1.191406 -0.613281 1.21875 -0.675781 1.21875 -0.75 C 1.207031 -0.820312 1.175781 -0.875 1.125 -0.90625 C 1.082031 -0.945312 1.023438 -0.976562 0.953125 -1 C 0.816406 -1.050781 0.691406 -1.109375 0.578125 -1.171875 C 0.460938 -1.234375 0.367188 -1.3125 0.296875 -1.40625 C 0.234375 -1.507812 0.203125 -1.628906 0.203125 -1.765625 C 0.203125 -1.910156 0.226562 -2.039062 0.28125 -2.15625 C 0.34375 -2.269531 0.425781 -2.359375 0.53125 -2.421875 C 0.644531 -2.492188 0.773438 -2.535156 0.921875 -2.546875 C 0.984375 -2.546875 1.0625 -2.539062 1.15625 -2.53125 C 1.25 -2.519531 1.378906 -2.488281 1.546875 -2.4375 L 1.484375 -1.953125 C 1.335938 -2.003906 1.222656 -2.035156 1.140625 -2.046875 C 1.066406 -2.054688 1.007812 -2.0625 0.96875 -2.0625 C 0.875 -2.050781 0.804688 -2.015625 0.765625 -1.953125 C 0.722656 -1.898438 0.707031 -1.835938 0.71875 -1.765625 C 0.71875 -1.703125 0.742188 -1.648438 0.796875 -1.609375 C 0.859375 -1.578125 0.925781 -1.546875 1 -1.515625 C 1.125 -1.472656 1.242188 -1.414062 1.359375 -1.34375 C 1.472656 -1.269531 1.5625 -1.1875 1.625 -1.09375 C 1.695312 -1 1.734375 -0.882812 1.734375 -0.75 C 1.734375 -0.601562 1.703125 -0.472656 1.640625 -0.359375 C 1.578125 -0.253906 1.488281 -0.164062 1.375 -0.09375 C 1.257812 -0.03125 1.125 0.00390625 0.96875 0.015625 C 0.914062 0.0234375 0.847656 0.0234375 0.765625 0.015625 C 0.691406 0.00390625 0.601562 -0.0078125 0.5 -0.03125 C 0.394531 -0.0625 0.285156 -0.101562 0.171875 -0.15625 Z M 0.171875 -0.15625 "/></g></g></g><g fill="#000000" fill-opacity="1"><g transform="translate(28.928825, 3.70035)"><g><path d="M 0.78125 0 L 0.28125 0 L 0.28125 -2.515625 L 1.28125 -2.515625 C 1.414062 -2.515625 1.53125 -2.488281 1.625 -2.4375 C 1.726562 -2.382812 1.8125 -2.3125 1.875 -2.21875 C 1.9375 -2.125 1.972656 -2.019531 1.984375 -1.90625 C 2.003906 -1.789062 2.003906 -1.675781 1.984375 -1.5625 C 1.972656 -1.457031 1.9375 -1.359375 1.875 -1.265625 C 1.8125 -1.179688 1.726562 -1.109375 1.625 -1.046875 C 1.53125 -0.992188 1.414062 -0.96875 1.28125 -0.96875 L 0.78125 -0.96875 Z M 0.78125 -1.453125 L 1.234375 -1.453125 C 1.296875 -1.453125 1.347656 -1.46875 1.390625 -1.5 C 1.429688 -1.539062 1.457031 -1.585938 1.46875 -1.640625 C 1.488281 -1.703125 1.488281 -1.757812 1.46875 -1.8125 C 1.457031 -1.875 1.429688 -1.921875 1.390625 -1.953125 C 1.347656 -1.992188 1.296875 -2.015625 1.234375 -2.015625 L 0.78125 -2.015625 Z M 0.78125 -1.453125 "/></g></g></g><g fill="#000000" fill-opacity="1"><g transform="translate(31.981191, 3.70035)"><g><path d="M 0.0625 0 L 1.125 -2.609375 L 1.171875 -2.609375 L 2.234375 0 L 1.671875 0 L 1.5625 -0.265625 L 0.734375 -0.265625 L 0.625 0 Z M 0.90625 -0.75 L 1.375 -0.75 L 1.140625 -1.40625 Z M 0.90625 -0.75 "/></g></g></g><g fill="#000000" fill-opacity="1"><g transform="translate(35.209749, 3.70035)"><g/></g></g><g fill="#000000" fill-opacity="1"><g transform="translate(37.138006, 3.70035)"><g><path d="M 0.171875 -0.15625 L 0.234375 -0.6875 C 0.328125 -0.625 0.421875 -0.578125 0.515625 -0.546875 C 0.609375 -0.515625 0.691406 -0.492188 0.765625 -0.484375 C 0.847656 -0.484375 0.910156 -0.484375 0.953125 -0.484375 C 1.023438 -0.492188 1.085938 -0.519531 1.140625 -0.5625 C 1.191406 -0.613281 1.21875 -0.675781 1.21875 -0.75 C 1.207031 -0.820312 1.175781 -0.875 1.125 -0.90625 C 1.082031 -0.945312 1.023438 -0.976562 0.953125 -1 C 0.816406 -1.050781 0.691406 -1.109375 0.578125 -1.171875 C 0.460938 -1.234375 0.367188 -1.3125 0.296875 -1.40625 C 0.234375 -1.507812 0.203125 -1.628906 0.203125 -1.765625 C 0.203125 -1.910156 0.226562 -2.039062 0.28125 -2.15625 C 0.34375 -2.269531 0.425781 -2.359375 0.53125 -2.421875 C 0.644531 -2.492188 0.773438 -2.535156 0.921875 -2.546875 C 0.984375 -2.546875 1.0625 -2.539062 1.15625 -2.53125 C 1.25 -2.519531 1.378906 -2.488281 1.546875 -2.4375 L 1.484375 -1.953125 C 1.335938 -2.003906 1.222656 -2.035156 1.140625 -2.046875 C 1.066406 -2.054688 1.007812 -2.0625 0.96875 -2.0625 C 0.875 -2.050781 0.804688 -2.015625 0.765625 -1.953125 C 0.722656 -1.898438 0.707031 -1.835938 0.71875 -1.765625 C 0.71875 -1.703125 0.742188 -1.648438 0.796875 -1.609375 C 0.859375 -1.578125 0.925781 -1.546875 1 -1.515625 C 1.125 -1.472656 1.242188 -1.414062 1.359375 -1.34375 C 1.472656 -1.269531 1.5625 -1.1875 1.625 -1.09375 C 1.695312 -1 1.734375 -0.882812 1.734375 -0.75 C 1.734375 -0.601562 1.703125 -0.472656 1.640625 -0.359375 C 1.578125 -0.253906 1.488281 -0.164062 1.375 -0.09375 C 1.257812 -0.03125 1.125 0.00390625 0.96875 0.015625 C 0.914062 0.0234375 0.847656 0.0234375 0.765625 0.015625 C 0.691406 0.00390625 0.601562 -0.0078125 0.5 -0.03125 C 0.394531 -0.0625 0.285156 -0.101562 0.171875 -0.15625 Z M 0.171875 -0.15625 "/></g></g></g><g fill="#000000" fill-opacity="1"><g transform="translate(39.929607, 3.70035)"><g><path d="M 0.0625 0 L 1.125 -2.609375 L 1.171875 -2.609375 L 2.234375 0 L 1.671875 0 L 1.5625 -0.265625 L 0.734375 -0.265625 L 0.625 0 Z M 0.90625 -0.75 L 1.375 -0.75 L 1.140625 -1.40625 Z M 0.90625 -0.75 "/></g></g></g><g fill="#000000" fill-opacity="1"><g transform="translate(43.158165, 3.70035)"><g><path d="M 0.28125 -2.53125 L 0.78125 -2.53125 L 0.78125 -0.5 L 1.59375 -0.5 L 1.59375 0 L 0.28125 0 Z M 0.28125 -2.53125 "/></g></g></g><g fill="#000000" fill-opacity="1"><g transform="translate(45.822908, 3.70035)"><g><path d="M 1.5 0.03125 C 1.28125 0.03125 1.085938 -0.00390625 0.921875 -0.078125 C 0.765625 -0.148438 0.628906 -0.242188 0.515625 -0.359375 C 0.410156 -0.484375 0.328125 -0.625 0.265625 -0.78125 C 0.210938 -0.9375 0.1875 -1.097656 0.1875 -1.265625 C 0.1875 -1.429688 0.210938 -1.59375 0.265625 -1.75 C 0.328125 -1.90625 0.410156 -2.039062 0.515625 -2.15625 C 0.628906 -2.28125 0.765625 -2.378906 0.921875 -2.453125 C 1.085938 -2.523438 1.28125 -2.5625 1.5 -2.5625 C 1.71875 -2.5625 1.90625 -2.523438 2.0625 -2.453125 C 2.226562 -2.378906 2.363281 -2.28125 2.46875 -2.15625 C 2.582031 -2.039062 2.664062 -1.90625 2.71875 -1.75 C 2.769531 -1.59375 2.796875 -1.429688 2.796875 -1.265625 C 2.796875 -1.097656 2.769531 -0.9375 2.71875 -0.78125 C 2.664062 -0.625 2.582031 -0.484375 2.46875 -0.359375 C 2.363281 -0.242188 2.226562 -0.148438 2.0625 -0.078125 C 1.90625 -0.00390625 1.71875 0.03125 1.5 0.03125 Z M 1.5 -0.484375 C 1.644531 -0.484375 1.765625 -0.507812 1.859375 -0.5625 C 1.960938 -0.625 2.046875 -0.703125 2.109375 -0.796875 C 2.171875 -0.890625 2.210938 -0.988281 2.234375 -1.09375 C 2.253906 -1.207031 2.253906 -1.316406 2.234375 -1.421875 C 2.210938 -1.535156 2.171875 -1.640625 2.109375 -1.734375 C 2.046875 -1.828125 1.960938 -1.898438 1.859375 -1.953125 C 1.765625 -2.015625 1.644531 -2.046875 1.5 -2.046875 C 1.351562 -2.046875 1.226562 -2.015625 1.125 -1.953125 C 1.019531 -1.898438 0.9375 -1.828125 0.875 -1.734375 C 0.8125 -1.640625 0.769531 -1.535156 0.75 -1.421875 C 0.726562 -1.316406 0.726562 -1.207031 0.75 -1.09375 C 0.769531 -0.988281 0.8125 -0.890625 0.875 -0.796875 C 0.9375 -0.703125 1.019531 -0.625 1.125 -0.5625 C 1.226562 -0.507812 1.351562 -0.484375 1.5 -0.484375 Z M 1.5 -0.484375 "/></g></g></g><g fill="#000000" fill-opacity="1"><g transform="translate(49.735095, 3.70035)"><g><path d="M 0.78125 -1.375 L 0.78125 0 L 0.28125 0 L 0.28125 -2.578125 L 0.421875 -2.578125 L 1.6875 -1.09375 L 1.6875 -2.515625 L 2.203125 -2.515625 L 2.203125 0.046875 L 2.0625 0.046875 Z M 0.78125 -1.375 "/></g></g></g></g></g></svg>