<svg xmlns="http://www.w3.org/2000/svg" xmlns:xlink="http://www.w3.org/1999/xlink" width="250" zoomAndPan="magnify" viewBox="0 0 187.5 74.999997" height="100" preserveAspectRatio="xMidYMid meet" version="1.0"><defs><g/><clipPath id="6a8108f2ba"><path d="M 33 11.167969 L 58 11.167969 L 58 63 L 33 63 Z M 33 11.167969 " clip-rule="nonzero"/></clipPath><clipPath id="034efef83f"><path d="M 29 11.167969 L 43 11.167969 L 43 37 L 29 37 Z M 29 11.167969 " clip-rule="nonzero"/></clipPath><clipPath id="e6cae19f56"><rect x="0" width="113" y="0" height="37"/></clipPath><clipPath id="73bf2cc6d5"><path d="M 0.664062 5 L 83 5 L 83 6 L 0.664062 6 Z M 0.664062 5 " clip-rule="nonzero"/></clipPath><clipPath id="67e18977a9"><path d="M 1 0.195312 L 5 0.195312 L 5 5 L 1 5 Z M 1 0.195312 " clip-rule="nonzero"/></clipPath><clipPath id="cd6818704f"><path d="M 6 0.195312 L 9 0.195312 L 9 5 L 6 5 Z M 6 0.195312 " clip-rule="nonzero"/></clipPath><clipPath id="d75f40cbda"><path d="M 10 0.195312 L 14 0.195312 L 14 5 L 10 5 Z M 10 0.195312 " clip-rule="nonzero"/></clipPath><clipPath id="dc324c83e4"><path d="M 15 0.195312 L 19 0.195312 L 19 5 L 15 5 Z M 15 0.195312 " clip-rule="nonzero"/></clipPath><clipPath id="84550b8d65"><path d="M 20 0.195312 L 23 0.195312 L 23 5 L 20 5 Z M 20 0.195312 " clip-rule="nonzero"/></clipPath><clipPath id="5cb96f9d10"><path d="M 24 0.195312 L 28 0.195312 L 28 5 L 24 5 Z M 24 0.195312 " clip-rule="nonzero"/></clipPath><clipPath id="bd720f9cf0"><path d="M 32 0.195312 L 37 0.195312 L 37 5 L 32 5 Z M 32 0.195312 " clip-rule="nonzero"/></clipPath><clipPath id="63d6ef9dc2"><path d="M 41 0.195312 L 44 0.195312 L 44 5 L 41 5 Z M 41 0.195312 " clip-rule="nonzero"/></clipPath><clipPath id="b5e15bdcd7"><path d="M 45 0.195312 L 49 0.195312 L 49 5 L 45 5 Z M 45 0.195312 " clip-rule="nonzero"/></clipPath><clipPath id="3f5c6a5dcf"><path d="M 49 0.195312 L 54 0.195312 L 54 5 L 49 5 Z M 49 0.195312 " clip-rule="nonzero"/></clipPath><clipPath id="6e4dcc56e6"><path d="M 58 0.195312 L 61 0.195312 L 61 5 L 58 5 Z M 58 0.195312 " clip-rule="nonzero"/></clipPath><clipPath id="7a6ca9fc06"><path d="M 62 0.195312 L 66 0.195312 L 66 5 L 62 5 Z M 62 0.195312 " clip-rule="nonzero"/></clipPath><clipPath id="6175532688"><path d="M 67 0.195312 L 70 0.195312 L 70 5 L 67 5 Z M 67 0.195312 " clip-rule="nonzero"/></clipPath><clipPath id="2cc711f854"><path d="M 71 0.195312 L 76 0.195312 L 76 5 L 71 5 Z M 71 0.195312 " clip-rule="nonzero"/></clipPath><clipPath id="be3b7161b6"><path d="M 77 0.195312 L 81 0.195312 L 81 5 L 77 5 Z M 77 0.195312 " clip-rule="nonzero"/></clipPath><clipPath id="42bf93e568"><rect x="0" width="84" y="0" height="7"/></clipPath></defs><g clip-path="url(#6a8108f2ba)"><path fill="#f89c02" d="M 50.128906 40.300781 C 41.730469 50.121094 41.886719 60.78125 51.816406 62.382812 C 52.089844 62.425781 52.375 62.464844 52.664062 62.492188 C 42.257812 62.492188 38.324219 56.410156 38.574219 49.265625 C 38.828125 42.117188 43.367188 34.628906 49.613281 29.6875 C 49.613281 29.6875 36.027344 36.136719 36.480469 52.4375 C 25.164062 32.183594 50.234375 24.589844 53.460938 11.167969 C 58.675781 18.691406 58.902344 26.710938 54.023438 34.929688 C 52.964844 36.710938 51.667969 38.5 50.128906 40.300781 Z M 50.128906 40.300781 " fill-opacity="1" fill-rule="nonzero"/></g><path fill="#f89c02" d="M 33.828125 50.808594 C 26.058594 45.273438 35.976562 29.5625 15.125 25.664062 C 20.753906 31.875 9.972656 55.957031 35.152344 53.929688 C 35.152344 53.929688 22.332031 51.636719 22.394531 39.753906 C 22.394531 39.753906 24.5 49.691406 33.828125 50.808594 Z M 33.828125 50.808594 " fill-opacity="1" fill-rule="nonzero"/><path fill="#f89c02" d="M 28.375 57.789062 C 31.121094 58.289062 36.207031 58.332031 38.914062 58.316406 C 33.269531 54.082031 25.175781 57.148438 17.730469 56.867188 C 25.730469 63.820312 34.792969 62.023438 39.101562 59.621094 C 34.320312 59.65625 28.375 57.789062 28.375 57.789062 Z M 28.375 57.789062 " fill-opacity="1" fill-rule="nonzero"/><path fill="#f89c02" d="M 64.695312 30.289062 C 62.710938 31.480469 59.671875 34.460938 58.082031 36.082031 C 64.449219 36.433594 67.042969 30.0625 71.648438 25.890625 C 61.945312 24.558594 57.867188 30.394531 57.039062 35.054688 C 59.839844 32.183594 64.695312 30.289062 64.695312 30.289062 Z M 64.695312 30.289062 " fill-opacity="1" fill-rule="nonzero"/><g clip-path="url(#034efef83f)"><path fill="#f89c02" d="M 32.90625 36.097656 C 35.054688 23.597656 46.996094 22.859375 41.445312 11.445312 C 37.78125 17.578125 24.78125 21.640625 30.539062 33.363281 C 30.539062 33.363281 31.273438 24.394531 37.621094 20.664062 C 37.621094 20.664062 30.558594 27.386719 32.90625 36.097656 Z M 32.90625 36.097656 " fill-opacity="1" fill-rule="nonzero"/></g><path fill="#f89c02" d="M 62.363281 48.644531 L 59.078125 45.5 C 59.078125 45.5 59.644531 40.054688 55.890625 36.367188 C 54.894531 37.769531 53.769531 39.203125 52.425781 40.570312 C 44.355469 48.761719 42.519531 59.171875 51.816406 62.378906 C 51.8125 62.375 51.804688 62.375 51.796875 62.375 C 51.804688 62.378906 51.8125 62.378906 51.816406 62.382812 C 51.902344 62.414062 52.09375 62.441406 52.273438 62.460938 C 52.394531 62.46875 52.519531 62.480469 52.640625 62.492188 C 52.652344 62.492188 52.660156 62.492188 52.660156 62.492188 L 52.664062 62.492188 C 57.308594 62.980469 60.433594 61.59375 61.367188 60.691406 C 62.300781 59.789062 61.507812 58.433594 60.464844 57.917969 C 61.4375 57.082031 61.820312 55.871094 60.121094 55.3125 C 61.886719 54.515625 61.160156 53.6875 60.8125 53.269531 C 60.464844 52.851562 60.085938 51.605469 60.085938 51.605469 L 61.910156 50.808594 C 62.765625 50.433594 62.996094 49.328125 62.363281 48.644531 Z M 62.363281 48.644531 " fill-opacity="1" fill-rule="nonzero"/><g transform="matrix(1, 0, 0, 1, 68, 23)"><g clip-path="url(#e6cae19f56)"><g fill="#f89c02" fill-opacity="1"><g transform="translate(1.42265, 27.994925)"><g><path d="M 17.59375 -6 L 17.59375 -4.625 C 17.59375 -3.882812 17.503906 -3.300781 17.328125 -2.875 C 17.148438 -2.445312 16.878906 -2.078125 16.515625 -1.765625 C 17.234375 -1.660156 17.59375 -1.0625 17.59375 0.03125 L 17.59375 0.578125 L 16.890625 0.578125 C 16.765625 0.285156 16.5625 0.113281 16.28125 0.0625 C 16.007812 0.0195312 15.660156 0 15.234375 0 L 8.265625 0 C 6.941406 0 6.03125 -0.359375 5.53125 -1.078125 C 5.03125 -0.359375 4.117188 0 2.796875 0 L 0.609375 0 L 0.609375 -0.6875 C 1.421875 -0.894531 2.03125 -1.15625 2.4375 -1.46875 C 2.851562 -1.78125 3.128906 -2.171875 3.265625 -2.640625 C 3.410156 -3.109375 3.484375 -3.664062 3.484375 -4.3125 L 3.484375 -15.765625 C 3.484375 -16.515625 3.300781 -17.140625 2.9375 -17.640625 C 2.582031 -18.140625 1.804688 -18.535156 0.609375 -18.828125 L 0.609375 -19.53125 L 2.796875 -19.53125 C 4.117188 -19.53125 5.03125 -19.171875 5.53125 -18.453125 C 6.03125 -19.171875 6.941406 -19.53125 8.265625 -19.53125 L 10.421875 -19.53125 L 10.421875 -18.828125 C 9.242188 -18.535156 8.460938 -18.148438 8.078125 -17.671875 C 7.691406 -17.191406 7.5 -16.554688 7.5 -15.765625 L 7.5 -4.921875 C 7.5 -3.648438 7.757812 -2.710938 8.28125 -2.109375 C 8.8125 -1.515625 9.800781 -1.226562 11.25 -1.25 C 12.65625 -1.25 13.847656 -1.648438 14.828125 -2.453125 C 15.804688 -3.253906 16.492188 -4.4375 16.890625 -6 Z M 17.59375 -6 "/></g></g></g><g fill="#f89c02" fill-opacity="1"><g transform="translate(19.732067, 27.994925)"><g><path d="M 22.0625 -19.53125 L 23.015625 -19.53125 L 23.015625 -18.890625 C 21.867188 -18.609375 21.082031 -18.164062 20.65625 -17.5625 C 20.226562 -16.96875 20.015625 -16.15625 20.015625 -15.125 L 20.015625 -6.53125 C 20.015625 -4.332031 19.300781 -2.640625 17.875 -1.453125 C 16.445312 -0.265625 14.394531 0.328125 11.71875 0.328125 C 9.769531 0.328125 8.171875 0.0390625 6.921875 -0.53125 C 5.679688 -1.101562 4.765625 -1.898438 4.171875 -2.921875 C 3.585938 -3.941406 3.296875 -5.113281 3.296875 -6.4375 L 3.296875 -14.9375 C 3.296875 -15.96875 3.085938 -16.8125 2.671875 -17.46875 C 2.253906 -18.132812 1.492188 -18.609375 0.390625 -18.890625 L 0.390625 -19.53125 L 2.59375 -19.53125 C 3.28125 -19.53125 3.847656 -19.4375 4.296875 -19.25 C 4.753906 -19.0625 5.101562 -18.796875 5.34375 -18.453125 C 5.800781 -19.171875 6.710938 -19.53125 8.078125 -19.53125 L 10.171875 -19.53125 L 10.171875 -18.890625 C 9.359375 -18.679688 8.738281 -18.378906 8.3125 -17.984375 C 7.894531 -17.585938 7.617188 -17.125 7.484375 -16.59375 C 7.347656 -16.070312 7.28125 -15.519531 7.28125 -14.9375 L 7.28125 -7.46875 C 7.28125 -3.613281 9.078125 -1.6875 12.671875 -1.6875 C 14.585938 -1.6875 16.054688 -2.15625 17.078125 -3.09375 C 18.097656 -4.039062 18.609375 -5.378906 18.609375 -7.109375 L 18.609375 -14.9375 C 18.609375 -15.65625 18.53125 -16.273438 18.375 -16.796875 C 18.21875 -17.328125 17.910156 -17.757812 17.453125 -18.09375 C 16.992188 -18.4375 16.300781 -18.703125 15.375 -18.890625 L 15.375 -19.53125 L 16.59375 -19.53125 C 17.914062 -19.53125 18.828125 -19.171875 19.328125 -18.453125 C 19.566406 -18.796875 19.925781 -19.0625 20.40625 -19.25 C 20.882812 -19.4375 21.4375 -19.53125 22.0625 -19.53125 Z M 22.0625 -19.53125 "/></g></g></g><g fill="#f89c02" fill-opacity="1"><g transform="translate(43.102847, 27.994925)"><g><path d="M 12.171875 -10.265625 L 12.171875 -10.171875 C 14.285156 -10.023438 15.921875 -9.523438 17.078125 -8.671875 C 18.242188 -7.828125 18.828125 -6.6875 18.828125 -5.25 C 18.828125 -3.6875 18.132812 -2.421875 16.75 -1.453125 C 15.375 -0.484375 13.367188 0 10.734375 0 L 10.234375 0 C 8.898438 0 7.878906 -0.0859375 7.171875 -0.265625 C 6.460938 -0.453125 5.925781 -0.722656 5.5625 -1.078125 C 5.0625 -0.359375 4.148438 0 2.828125 0 L 0.65625 0 L 0.65625 -0.6875 C 1.800781 -0.90625 2.554688 -1.296875 2.921875 -1.859375 C 3.296875 -2.421875 3.484375 -3.203125 3.484375 -4.203125 L 3.484375 -15.34375 C 3.484375 -16.320312 3.289062 -17.078125 2.90625 -17.609375 C 2.53125 -18.148438 1.78125 -18.554688 0.65625 -18.828125 L 0.65625 -19.53125 L 2.828125 -19.53125 C 4.148438 -19.53125 5.0625 -19.171875 5.5625 -18.453125 C 5.925781 -18.796875 6.460938 -19.0625 7.171875 -19.25 C 7.878906 -19.4375 8.898438 -19.53125 10.234375 -19.53125 L 10.5625 -19.53125 C 11.394531 -19.53125 12.25 -19.472656 13.125 -19.359375 C 14 -19.242188 14.804688 -19.023438 15.546875 -18.703125 C 16.296875 -18.378906 16.898438 -17.914062 17.359375 -17.3125 C 17.828125 -16.707031 18.0625 -15.90625 18.0625 -14.90625 C 18.0625 -13.539062 17.539062 -12.476562 16.5 -11.71875 C 15.457031 -10.96875 14.015625 -10.484375 12.171875 -10.265625 Z M 7.515625 -15.515625 L 7.515625 -10.8125 L 8.90625 -10.8125 C 9.84375 -10.8125 10.675781 -10.910156 11.40625 -11.109375 C 12.132812 -11.316406 12.707031 -11.691406 13.125 -12.234375 C 13.550781 -12.773438 13.765625 -13.535156 13.765625 -14.515625 C 13.765625 -15.898438 13.410156 -16.882812 12.703125 -17.46875 C 11.992188 -18.050781 11.097656 -18.34375 10.015625 -18.34375 C 9.085938 -18.34375 8.4375 -18.097656 8.0625 -17.609375 C 7.695312 -17.128906 7.515625 -16.429688 7.515625 -15.515625 Z M 10.640625 -1.25 C 11.359375 -1.25 12 -1.359375 12.5625 -1.578125 C 13.125 -1.796875 13.570312 -2.164062 13.90625 -2.6875 C 14.238281 -3.21875 14.40625 -3.945312 14.40625 -4.875 C 14.40625 -6.507812 13.894531 -7.703125 12.875 -8.453125 C 11.863281 -9.210938 10.519531 -9.59375 8.84375 -9.59375 L 7.515625 -9.59375 L 7.515625 -4.484375 C 7.515625 -3.503906 7.722656 -2.71875 8.140625 -2.125 C 8.554688 -1.539062 9.390625 -1.25 10.640625 -1.25 Z M 10.640625 -1.25 "/></g></g></g><g fill="#f89c02" fill-opacity="1"><g transform="translate(63.237673, 27.994925)"><g><path d="M 10.5625 -19.53125 L 10.5625 -18.828125 C 9.71875 -18.660156 9.078125 -18.425781 8.640625 -18.125 C 8.210938 -17.820312 7.921875 -17.472656 7.765625 -17.078125 C 7.617188 -16.679688 7.546875 -16.242188 7.546875 -15.765625 L 7.546875 -3.765625 C 7.546875 -2.984375 7.742188 -2.335938 8.140625 -1.828125 C 8.535156 -1.328125 9.332031 -0.945312 10.53125 -0.6875 L 10.53125 0 L 8.265625 0 C 7.640625 0 7.085938 -0.0859375 6.609375 -0.265625 C 6.128906 -0.453125 5.769531 -0.722656 5.53125 -1.078125 C 5.03125 -0.359375 4.117188 0 2.796875 0 L 0.609375 0 L 0.609375 -0.6875 C 1.804688 -0.945312 2.597656 -1.335938 2.984375 -1.859375 C 3.367188 -2.390625 3.5625 -3.023438 3.5625 -3.765625 L 3.5625 -15.765625 C 3.5625 -16.609375 3.347656 -17.269531 2.921875 -17.75 C 2.503906 -18.226562 1.734375 -18.585938 0.609375 -18.828125 L 0.609375 -19.53125 L 2.796875 -19.53125 C 4.117188 -19.53125 5.03125 -19.171875 5.53125 -18.453125 C 5.769531 -18.796875 6.128906 -19.0625 6.609375 -19.25 C 7.085938 -19.4375 7.640625 -19.53125 8.265625 -19.53125 Z M 10.5625 -19.53125 "/></g></g></g><g fill="#f89c02" fill-opacity="1"><g transform="translate(74.411397, 27.994925)"><g><path d="M 2.109375 0.578125 L 1.40625 0.578125 L 1.40625 0.03125 C 1.40625 -0.539062 1.503906 -0.972656 1.703125 -1.265625 C 1.910156 -1.566406 2.171875 -1.734375 2.484375 -1.765625 C 2.117188 -2.078125 1.847656 -2.457031 1.671875 -2.90625 C 1.492188 -3.363281 1.40625 -3.972656 1.40625 -4.734375 L 1.40625 -6 L 2.109375 -6 C 3.191406 -4.25 4.289062 -2.976562 5.40625 -2.1875 C 6.519531 -1.394531 7.664062 -1 8.84375 -1 C 9.800781 -1 10.5 -1.242188 10.9375 -1.734375 C 11.382812 -2.234375 11.609375 -2.835938 11.609375 -3.546875 C 11.609375 -4.703125 11.160156 -5.703125 10.265625 -6.546875 C 9.742188 -7.046875 9.078125 -7.539062 8.265625 -8.03125 C 7.453125 -8.519531 6.625 -9.019531 5.78125 -9.53125 C 4.945312 -10.050781 4.203125 -10.609375 3.546875 -11.203125 C 2.804688 -11.878906 2.304688 -12.5 2.046875 -13.0625 C 1.785156 -13.625 1.65625 -14.226562 1.65625 -14.875 C 1.65625 -15.875 1.9375 -16.75 2.5 -17.5 C 3.0625 -18.257812 3.863281 -18.847656 4.90625 -19.265625 C 5.945312 -19.691406 7.1875 -19.90625 8.625 -19.90625 C 9.570312 -19.90625 10.414062 -19.832031 11.15625 -19.6875 C 11.90625 -19.539062 12.5 -19.453125 12.9375 -19.421875 C 13.3125 -19.398438 13.59375 -19.429688 13.78125 -19.515625 C 13.976562 -19.609375 14.140625 -19.820312 14.265625 -20.15625 L 14.96875 -20.15625 L 14.96875 -19.546875 C 14.96875 -19.066406 14.878906 -18.664062 14.703125 -18.34375 C 14.523438 -18.019531 14.253906 -17.84375 13.890625 -17.8125 C 14.367188 -17.40625 14.664062 -16.960938 14.78125 -16.484375 C 14.90625 -16.003906 14.96875 -15.5 14.96875 -14.96875 L 14.96875 -13.53125 L 14.265625 -13.53125 C 13.535156 -15.28125 12.597656 -16.566406 11.453125 -17.390625 C 10.304688 -18.222656 9.179688 -18.640625 8.078125 -18.640625 C 7.140625 -18.640625 6.445312 -18.390625 6 -17.890625 C 5.5625 -17.390625 5.34375 -16.828125 5.34375 -16.203125 C 5.34375 -15.703125 5.460938 -15.253906 5.703125 -14.859375 C 5.953125 -14.460938 6.265625 -14.109375 6.640625 -13.796875 C 7.097656 -13.410156 7.722656 -12.992188 8.515625 -12.546875 C 9.304688 -12.109375 10.132812 -11.628906 11 -11.109375 C 11.875 -10.597656 12.632812 -10.046875 13.28125 -9.453125 C 14.71875 -8.179688 15.4375 -6.773438 15.4375 -5.234375 C 15.4375 -4.566406 15.300781 -3.898438 15.03125 -3.234375 C 14.757812 -2.566406 14.320312 -1.960938 13.71875 -1.421875 C 13.125 -0.878906 12.34375 -0.441406 11.375 -0.109375 C 10.40625 0.222656 9.234375 0.390625 7.859375 0.390625 C 6.953125 0.390625 6.117188 0.316406 5.359375 0.171875 C 4.609375 0.0351562 3.992188 -0.0546875 3.515625 -0.109375 C 3.109375 -0.148438 2.804688 -0.128906 2.609375 -0.046875 C 2.421875 0.0351562 2.253906 0.242188 2.109375 0.578125 Z M 2.109375 0.578125 "/></g></g></g><g fill="#f89c02" fill-opacity="1"><g transform="translate(91.310265, 27.994925)"><g><path d="M 7.6875 0 L 4.921875 0 L 4.921875 -0.6875 C 5.953125 -0.894531 6.710938 -1.144531 7.203125 -1.4375 C 7.691406 -1.726562 8.015625 -2.066406 8.171875 -2.453125 C 8.328125 -2.847656 8.40625 -3.285156 8.40625 -3.765625 L 8.40625 -15.34375 C 8.40625 -15.882812 8.34375 -16.378906 8.21875 -16.828125 C 8.101562 -17.273438 7.867188 -17.640625 7.515625 -17.921875 C 7.171875 -18.203125 6.648438 -18.34375 5.953125 -18.34375 C 5.117188 -18.34375 4.265625 -17.9375 3.390625 -17.125 C 2.515625 -16.3125 1.847656 -15.113281 1.390625 -13.53125 L 0.6875 -13.53125 L 0.6875 -14.96875 C 0.6875 -15.613281 0.765625 -16.160156 0.921875 -16.609375 C 1.078125 -17.054688 1.359375 -17.457031 1.765625 -17.8125 C 1.046875 -17.90625 0.6875 -18.484375 0.6875 -19.546875 L 0.6875 -20.15625 L 1.390625 -20.15625 C 1.535156 -19.84375 1.734375 -19.660156 1.984375 -19.609375 C 2.242188 -19.554688 2.597656 -19.53125 3.046875 -19.53125 L 17.8125 -19.53125 C 18.25 -19.53125 18.601562 -19.554688 18.875 -19.609375 C 19.144531 -19.660156 19.34375 -19.84375 19.46875 -20.15625 L 20.15625 -20.15625 L 20.15625 -19.546875 C 20.15625 -18.484375 19.796875 -17.90625 19.078125 -17.8125 C 19.484375 -17.457031 19.765625 -17.054688 19.921875 -16.609375 C 20.078125 -16.160156 20.15625 -15.613281 20.15625 -14.96875 L 20.15625 -13.53125 L 19.46875 -13.53125 C 19.007812 -15.113281 18.34375 -16.3125 17.46875 -17.125 C 16.59375 -17.9375 15.738281 -18.34375 14.90625 -18.34375 C 14.226562 -18.34375 13.710938 -18.203125 13.359375 -17.921875 C 13.003906 -17.640625 12.765625 -17.273438 12.640625 -16.828125 C 12.523438 -16.378906 12.46875 -15.882812 12.46875 -15.34375 L 12.46875 -3.765625 C 12.46875 -3.285156 12.539062 -2.847656 12.6875 -2.453125 C 12.84375 -2.066406 13.160156 -1.726562 13.640625 -1.4375 C 14.128906 -1.144531 14.898438 -0.894531 15.953125 -0.6875 L 15.953125 0 L 13.171875 0 C 12.535156 0 11.976562 -0.0859375 11.5 -0.265625 C 11.019531 -0.453125 10.660156 -0.722656 10.421875 -1.078125 C 9.929688 -0.359375 9.019531 0 7.6875 0 Z M 7.6875 0 "/></g></g></g></g></g><g transform="matrix(1, 0, 0, 1, 80, 54)"><g clip-path="url(#42bf93e568)"><g clip-path="url(#73bf2cc6d5)"><path fill="#000000" d="M 0.945312 5.023438 L 82.496094 5.023438 L 82.496094 5.382812 L 0.945312 5.382812 Z M 0.945312 5.023438 " fill-opacity="1" fill-rule="nonzero"/></g><g clip-path="url(#67e18977a9)"><g fill="#000000" fill-opacity="1"><g transform="translate(0.946872, 4.667651)"><g><path d="M 0.4375 0 L 0.4375 -3.90625 L 1.984375 -3.90625 C 2.210938 -3.90625 2.410156 -3.851562 2.578125 -3.75 C 2.742188 -3.644531 2.867188 -3.503906 2.953125 -3.328125 C 3.046875 -3.148438 3.09375 -2.945312 3.09375 -2.71875 C 3.082031 -2.570312 3.046875 -2.425781 2.984375 -2.28125 C 2.929688 -2.144531 2.84375 -2.035156 2.71875 -1.953125 C 2.851562 -1.867188 2.953125 -1.753906 3.015625 -1.609375 C 3.085938 -1.472656 3.125 -1.328125 3.125 -1.171875 C 3.125 -0.953125 3.070312 -0.753906 2.96875 -0.578125 C 2.863281 -0.398438 2.722656 -0.257812 2.546875 -0.15625 C 2.378906 -0.0507812 2.191406 0 1.984375 0 Z M 1.21875 -3.125 L 1.21875 -2.34375 L 1.90625 -2.34375 C 2.019531 -2.34375 2.109375 -2.378906 2.171875 -2.453125 C 2.242188 -2.535156 2.28125 -2.628906 2.28125 -2.734375 C 2.28125 -2.835938 2.242188 -2.925781 2.171875 -3 C 2.109375 -3.082031 2.019531 -3.125 1.90625 -3.125 Z M 1.21875 -1.5625 L 1.21875 -0.78125 L 1.90625 -0.78125 C 2.019531 -0.78125 2.113281 -0.816406 2.1875 -0.890625 C 2.269531 -0.972656 2.3125 -1.066406 2.3125 -1.171875 C 2.3125 -1.285156 2.269531 -1.378906 2.1875 -1.453125 C 2.113281 -1.523438 2.019531 -1.5625 1.90625 -1.5625 Z M 1.21875 -1.5625 "/></g></g></g></g><g clip-path="url(#cd6818704f)"><g fill="#000000" fill-opacity="1"><g transform="translate(5.760916, 4.667651)"><g><path d="M 2.453125 0 L 0.4375 0 L 0.4375 -3.90625 L 2.390625 -3.90625 L 2.390625 -3.125 L 1.21875 -3.125 L 1.21875 -2.34375 L 2.234375 -2.34375 L 2.234375 -1.5625 L 1.21875 -1.5625 L 1.21875 -0.78125 L 2.453125 -0.78125 Z M 2.453125 0 "/></g></g></g></g><g clip-path="url(#d75f40cbda)"><g fill="#000000" fill-opacity="1"><g transform="translate(9.937954, 4.667651)"><g><path d="M 0.09375 0 L 1.734375 -4.046875 L 1.8125 -4.046875 L 3.453125 0 L 2.578125 0 L 2.421875 -0.421875 L 1.125 -0.421875 L 0.96875 0 Z M 1.40625 -1.15625 L 2.125 -1.15625 L 1.765625 -2.171875 Z M 1.40625 -1.15625 "/></g></g></g></g><g clip-path="url(#dc324c83e4)"><g fill="#000000" fill-opacity="1"><g transform="translate(14.92622, 4.667651)"><g><path d="M 3.234375 -1.359375 C 3.234375 -1.085938 3.179688 -0.859375 3.078125 -0.671875 C 2.972656 -0.484375 2.835938 -0.332031 2.671875 -0.21875 C 2.503906 -0.101562 2.320312 -0.03125 2.125 0 C 1.925781 0.0390625 1.722656 0.0390625 1.515625 0 C 1.316406 -0.03125 1.132812 -0.101562 0.96875 -0.21875 C 0.800781 -0.332031 0.664062 -0.484375 0.5625 -0.671875 C 0.46875 -0.859375 0.421875 -1.085938 0.421875 -1.359375 L 0.421875 -3.90625 L 1.1875 -3.90625 L 1.1875 -1.359375 C 1.1875 -1.203125 1.226562 -1.070312 1.3125 -0.96875 C 1.40625 -0.875 1.515625 -0.804688 1.640625 -0.765625 C 1.765625 -0.734375 1.890625 -0.734375 2.015625 -0.765625 C 2.140625 -0.804688 2.242188 -0.875 2.328125 -0.96875 C 2.410156 -1.070312 2.453125 -1.203125 2.453125 -1.359375 L 2.453125 -3.90625 L 3.234375 -3.90625 Z M 3.234375 -1.359375 "/></g></g></g></g><g clip-path="url(#84550b8d65)"><g fill="#000000" fill-opacity="1"><g transform="translate(20.01249, 4.667651)"><g><path d="M 1.859375 0 L 1.078125 0 L 1.078125 -3.125 L 0.109375 -3.125 L 0.109375 -3.890625 L 2.828125 -3.890625 L 2.828125 -3.125 L 1.859375 -3.125 Z M 1.859375 0 "/></g></g></g></g><g clip-path="url(#5cb96f9d10)"><g fill="#000000" fill-opacity="1"><g transform="translate(24.423641, 4.667651)"><g><path d="M 1.390625 0 L 1.390625 -1.75 L 0.03125 -3.90625 L 0.984375 -3.90625 L 1.78125 -2.5625 L 2.578125 -3.90625 L 3.53125 -3.90625 L 2.171875 -1.75 L 2.171875 0 Z M 1.390625 0 "/></g></g></g></g><g fill="#000000" fill-opacity="1"><g transform="translate(29.390133, 4.667651)"><g/></g></g><g clip-path="url(#bd720f9cf0)"><g fill="#000000" fill-opacity="1"><g transform="translate(32.369376, 4.667651)"><g><path d="M 1.65625 -3.953125 C 1.945312 -3.953125 2.175781 -3.878906 2.34375 -3.734375 C 2.507812 -3.585938 2.59375 -3.378906 2.59375 -3.109375 C 2.59375 -2.878906 2.519531 -2.6875 2.375 -2.53125 C 2.226562 -2.375 2.046875 -2.226562 1.828125 -2.09375 L 2.875 -1.078125 C 2.96875 -1.191406 3.046875 -1.320312 3.109375 -1.46875 C 3.171875 -1.613281 3.21875 -1.773438 3.25 -1.953125 L 3.734375 -1.953125 C 3.679688 -1.710938 3.609375 -1.492188 3.515625 -1.296875 C 3.429688 -1.097656 3.320312 -0.925781 3.1875 -0.78125 L 3.984375 0 L 3.328125 0 L 2.859375 -0.453125 C 2.679688 -0.304688 2.488281 -0.1875 2.28125 -0.09375 C 2.070312 0 1.816406 0.046875 1.515625 0.046875 C 1.140625 0.046875 0.835938 -0.0390625 0.609375 -0.21875 C 0.390625 -0.40625 0.28125 -0.671875 0.28125 -1.015625 C 0.28125 -1.285156 0.351562 -1.503906 0.5 -1.671875 C 0.65625 -1.847656 0.863281 -2.007812 1.125 -2.15625 C 1.007812 -2.289062 0.898438 -2.429688 0.796875 -2.578125 C 0.703125 -2.722656 0.65625 -2.898438 0.65625 -3.109375 C 0.65625 -3.367188 0.742188 -3.570312 0.921875 -3.71875 C 1.097656 -3.875 1.34375 -3.953125 1.65625 -3.953125 Z M 1.640625 -3.5625 C 1.484375 -3.5625 1.359375 -3.519531 1.265625 -3.4375 C 1.171875 -3.363281 1.125 -3.253906 1.125 -3.109375 C 1.125 -2.972656 1.15625 -2.847656 1.21875 -2.734375 C 1.289062 -2.628906 1.394531 -2.507812 1.53125 -2.375 C 1.738281 -2.5 1.890625 -2.613281 1.984375 -2.71875 C 2.078125 -2.832031 2.125 -2.960938 2.125 -3.109375 C 2.125 -3.242188 2.078125 -3.351562 1.984375 -3.4375 C 1.898438 -3.519531 1.785156 -3.5625 1.640625 -3.5625 Z M 1.421875 -1.859375 C 1.222656 -1.742188 1.066406 -1.625 0.953125 -1.5 C 0.847656 -1.382812 0.796875 -1.226562 0.796875 -1.03125 C 0.796875 -0.832031 0.859375 -0.671875 0.984375 -0.546875 C 1.117188 -0.429688 1.300781 -0.375 1.53125 -0.375 C 1.757812 -0.375 1.957031 -0.410156 2.125 -0.484375 C 2.289062 -0.554688 2.429688 -0.648438 2.546875 -0.765625 Z M 1.421875 -1.859375 "/></g></g></g></g><g fill="#000000" fill-opacity="1"><g transform="translate(37.787763, 4.667651)"><g/></g></g><g clip-path="url(#63d6ef9dc2)"><g fill="#000000" fill-opacity="1"><g transform="translate(40.767006, 4.667651)"><g><path d="M 0.25 -0.25 L 0.359375 -1.0625 C 0.503906 -0.957031 0.648438 -0.882812 0.796875 -0.84375 C 0.941406 -0.800781 1.070312 -0.773438 1.1875 -0.765625 C 1.3125 -0.753906 1.40625 -0.753906 1.46875 -0.765625 C 1.582031 -0.765625 1.679688 -0.800781 1.765625 -0.875 C 1.847656 -0.957031 1.882812 -1.050781 1.875 -1.15625 C 1.863281 -1.257812 1.816406 -1.34375 1.734375 -1.40625 C 1.660156 -1.46875 1.570312 -1.515625 1.46875 -1.546875 C 1.257812 -1.617188 1.066406 -1.707031 0.890625 -1.8125 C 0.710938 -1.914062 0.570312 -2.039062 0.46875 -2.1875 C 0.363281 -2.332031 0.3125 -2.515625 0.3125 -2.734375 C 0.3125 -2.953125 0.359375 -3.148438 0.453125 -3.328125 C 0.546875 -3.503906 0.675781 -3.644531 0.84375 -3.75 C 1.007812 -3.851562 1.195312 -3.910156 1.40625 -3.921875 C 1.507812 -3.929688 1.632812 -3.925781 1.78125 -3.90625 C 1.925781 -3.894531 2.128906 -3.847656 2.390625 -3.765625 L 2.28125 -3.015625 C 2.070312 -3.097656 1.898438 -3.144531 1.765625 -3.15625 C 1.640625 -3.164062 1.546875 -3.171875 1.484375 -3.171875 C 1.347656 -3.160156 1.25 -3.113281 1.1875 -3.03125 C 1.125 -2.945312 1.09375 -2.847656 1.09375 -2.734375 C 1.113281 -2.628906 1.164062 -2.546875 1.25 -2.484375 C 1.332031 -2.429688 1.425781 -2.382812 1.53125 -2.34375 C 1.738281 -2.269531 1.925781 -2.175781 2.09375 -2.0625 C 2.269531 -1.957031 2.410156 -1.832031 2.515625 -1.6875 C 2.617188 -1.539062 2.671875 -1.363281 2.671875 -1.15625 C 2.671875 -0.9375 2.625 -0.738281 2.53125 -0.5625 C 2.4375 -0.394531 2.300781 -0.253906 2.125 -0.140625 C 1.945312 -0.0351562 1.734375 0.0195312 1.484375 0.03125 C 1.410156 0.03125 1.3125 0.0234375 1.1875 0.015625 C 1.0625 0.015625 0.921875 -0.00390625 0.765625 -0.046875 C 0.609375 -0.0859375 0.4375 -0.15625 0.25 -0.25 Z M 0.25 -0.25 "/></g></g></g></g><g clip-path="url(#b5e15bdcd7)"><g fill="#000000" fill-opacity="1"><g transform="translate(45.080153, 4.667651)"><g><path d="M 1.21875 0 L 0.4375 0 L 0.4375 -3.890625 L 1.96875 -3.890625 C 2.1875 -3.890625 2.375 -3.84375 2.53125 -3.75 C 2.6875 -3.664062 2.804688 -3.550781 2.890625 -3.40625 C 2.984375 -3.269531 3.046875 -3.113281 3.078125 -2.9375 C 3.109375 -2.769531 3.109375 -2.597656 3.078125 -2.421875 C 3.046875 -2.253906 2.984375 -2.097656 2.890625 -1.953125 C 2.796875 -1.816406 2.671875 -1.703125 2.515625 -1.609375 C 2.367188 -1.523438 2.1875 -1.484375 1.96875 -1.484375 L 1.21875 -1.484375 Z M 1.21875 -2.25 L 1.90625 -2.25 C 2.007812 -2.25 2.09375 -2.273438 2.15625 -2.328125 C 2.21875 -2.390625 2.257812 -2.460938 2.28125 -2.546875 C 2.300781 -2.640625 2.300781 -2.726562 2.28125 -2.8125 C 2.257812 -2.894531 2.21875 -2.96875 2.15625 -3.03125 C 2.09375 -3.09375 2.007812 -3.125 1.90625 -3.125 L 1.21875 -3.125 Z M 1.21875 -2.25 "/></g></g></g></g><g clip-path="url(#3f5c6a5dcf)"><g fill="#000000" fill-opacity="1"><g transform="translate(49.796194, 4.667651)"><g><path d="M 0.09375 0 L 1.734375 -4.046875 L 1.8125 -4.046875 L 3.453125 0 L 2.578125 0 L 2.421875 -0.421875 L 1.125 -0.421875 L 0.96875 0 Z M 1.40625 -1.15625 L 2.125 -1.15625 L 1.765625 -2.171875 Z M 1.40625 -1.15625 "/></g></g></g></g><g fill="#000000" fill-opacity="1"><g transform="translate(54.784461, 4.667651)"><g/></g></g><g clip-path="url(#6e4dcc56e6)"><g fill="#000000" fill-opacity="1"><g transform="translate(57.763703, 4.667651)"><g><path d="M 0.25 -0.25 L 0.359375 -1.0625 C 0.503906 -0.957031 0.648438 -0.882812 0.796875 -0.84375 C 0.941406 -0.800781 1.070312 -0.773438 1.1875 -0.765625 C 1.3125 -0.753906 1.40625 -0.753906 1.46875 -0.765625 C 1.582031 -0.765625 1.679688 -0.800781 1.765625 -0.875 C 1.847656 -0.957031 1.882812 -1.050781 1.875 -1.15625 C 1.863281 -1.257812 1.816406 -1.34375 1.734375 -1.40625 C 1.660156 -1.46875 1.570312 -1.515625 1.46875 -1.546875 C 1.257812 -1.617188 1.066406 -1.707031 0.890625 -1.8125 C 0.710938 -1.914062 0.570312 -2.039062 0.46875 -2.1875 C 0.363281 -2.332031 0.3125 -2.515625 0.3125 -2.734375 C 0.3125 -2.953125 0.359375 -3.148438 0.453125 -3.328125 C 0.546875 -3.503906 0.675781 -3.644531 0.84375 -3.75 C 1.007812 -3.851562 1.195312 -3.910156 1.40625 -3.921875 C 1.507812 -3.929688 1.632812 -3.925781 1.78125 -3.90625 C 1.925781 -3.894531 2.128906 -3.847656 2.390625 -3.765625 L 2.28125 -3.015625 C 2.070312 -3.097656 1.898438 -3.144531 1.765625 -3.15625 C 1.640625 -3.164062 1.546875 -3.171875 1.484375 -3.171875 C 1.347656 -3.160156 1.25 -3.113281 1.1875 -3.03125 C 1.125 -2.945312 1.09375 -2.847656 1.09375 -2.734375 C 1.113281 -2.628906 1.164062 -2.546875 1.25 -2.484375 C 1.332031 -2.429688 1.425781 -2.382812 1.53125 -2.34375 C 1.738281 -2.269531 1.925781 -2.175781 2.09375 -2.0625 C 2.269531 -1.957031 2.410156 -1.832031 2.515625 -1.6875 C 2.617188 -1.539062 2.671875 -1.363281 2.671875 -1.15625 C 2.671875 -0.9375 2.625 -0.738281 2.53125 -0.5625 C 2.4375 -0.394531 2.300781 -0.253906 2.125 -0.140625 C 1.945312 -0.0351562 1.734375 0.0195312 1.484375 0.03125 C 1.410156 0.03125 1.3125 0.0234375 1.1875 0.015625 C 1.0625 0.015625 0.921875 -0.00390625 0.765625 -0.046875 C 0.609375 -0.0859375 0.4375 -0.15625 0.25 -0.25 Z M 0.25 -0.25 "/></g></g></g></g><g clip-path="url(#7a6ca9fc06)"><g fill="#000000" fill-opacity="1"><g transform="translate(62.076851, 4.667651)"><g><path d="M 0.09375 0 L 1.734375 -4.046875 L 1.8125 -4.046875 L 3.453125 0 L 2.578125 0 L 2.421875 -0.421875 L 1.125 -0.421875 L 0.96875 0 Z M 1.40625 -1.15625 L 2.125 -1.15625 L 1.765625 -2.171875 Z M 1.40625 -1.15625 "/></g></g></g></g><g clip-path="url(#6175532688)"><g fill="#000000" fill-opacity="1"><g transform="translate(67.065117, 4.667651)"><g><path d="M 0.4375 -3.90625 L 1.21875 -3.90625 L 1.21875 -0.78125 L 2.453125 -0.78125 L 2.453125 0 L 0.4375 0 Z M 0.4375 -3.90625 "/></g></g></g></g><g clip-path="url(#2cc711f854)"><g fill="#000000" fill-opacity="1"><g transform="translate(71.182263, 4.667651)"><g><path d="M 2.3125 0.046875 C 1.976562 0.046875 1.679688 -0.00390625 1.421875 -0.109375 C 1.171875 -0.222656 0.960938 -0.375 0.796875 -0.5625 C 0.628906 -0.757812 0.503906 -0.976562 0.421875 -1.21875 C 0.335938 -1.457031 0.296875 -1.703125 0.296875 -1.953125 C 0.296875 -2.203125 0.335938 -2.445312 0.421875 -2.6875 C 0.503906 -2.925781 0.628906 -3.140625 0.796875 -3.328125 C 0.960938 -3.523438 1.171875 -3.679688 1.421875 -3.796875 C 1.679688 -3.910156 1.976562 -3.96875 2.3125 -3.96875 C 2.644531 -3.96875 2.9375 -3.910156 3.1875 -3.796875 C 3.445312 -3.679688 3.660156 -3.523438 3.828125 -3.328125 C 3.992188 -3.140625 4.117188 -2.925781 4.203125 -2.6875 C 4.285156 -2.445312 4.328125 -2.203125 4.328125 -1.953125 C 4.328125 -1.703125 4.285156 -1.457031 4.203125 -1.21875 C 4.117188 -0.976562 3.992188 -0.757812 3.828125 -0.5625 C 3.660156 -0.375 3.445312 -0.222656 3.1875 -0.109375 C 2.9375 -0.00390625 2.644531 0.046875 2.3125 0.046875 Z M 2.3125 -0.75 C 2.53125 -0.75 2.71875 -0.789062 2.875 -0.875 C 3.039062 -0.96875 3.171875 -1.082031 3.265625 -1.21875 C 3.359375 -1.363281 3.421875 -1.519531 3.453125 -1.6875 C 3.484375 -1.863281 3.484375 -2.035156 3.453125 -2.203125 C 3.421875 -2.378906 3.359375 -2.539062 3.265625 -2.6875 C 3.171875 -2.832031 3.039062 -2.945312 2.875 -3.03125 C 2.71875 -3.113281 2.53125 -3.15625 2.3125 -3.15625 C 2.09375 -3.15625 1.898438 -3.113281 1.734375 -3.03125 C 1.578125 -2.945312 1.453125 -2.832031 1.359375 -2.6875 C 1.265625 -2.539062 1.203125 -2.378906 1.171875 -2.203125 C 1.140625 -2.035156 1.140625 -1.863281 1.171875 -1.6875 C 1.203125 -1.519531 1.265625 -1.363281 1.359375 -1.21875 C 1.453125 -1.082031 1.578125 -0.96875 1.734375 -0.875 C 1.898438 -0.789062 2.09375 -0.75 2.3125 -0.75 Z M 2.3125 -0.75 "/></g></g></g></g><g clip-path="url(#be3b7161b6)"><g fill="#000000" fill-opacity="1"><g transform="translate(77.226767, 4.667651)"><g><path d="M 1.21875 -2.125 L 1.21875 0 L 0.4375 0 L 0.4375 -3.984375 L 0.640625 -3.984375 L 2.609375 -1.6875 L 2.609375 -3.890625 L 3.390625 -3.890625 L 3.390625 0.078125 L 3.1875 0.078125 Z M 1.21875 -2.125 "/></g></g></g></g></g></g></svg>